<svg width="30" height="30" viewBox="0 0 30 30" fill="none" xmlns="http://www.w3.org/2000/svg">
<g clip-path="url(#clip0_2054_221)">
<path d="M24.3572 14.9544C24.4744 6.37767 21.0097 5.26761 13.1082 5.74388C7.66534 5.32762 5.52825 9.41532 5.51314 14.2493C5.21812 18.9821 6.68947 24.9636 12.6317 24.4611C20.049 24.3298 24.7014 23.5835 24.3572 14.9544ZM11.3872 0.193615C19.8826 -0.590174 29.7169 0.617388 29.8341 11.1592C30.1329 16.0119 30.2918 21.2134 27.8937 25.6161C25.3406 29.9213 21.0854 29.7413 16.6599 29.8426C12.7678 29.9964 8.75467 30.3301 5.00252 29.0663C1.17848 27.7538 0.138307 24.8924 0.221522 21.1497C0.0891383 17.9283 -0.0432493 14.7144 0.0134898 11.4892C0.202609 3.84628 3.56897 0.0173575 11.3872 0.193615Z" fill="#0077FF"/>
<path d="M4 4H25V25H4V4Z" fill="white"/>
<path fill-rule="evenodd" clip-rule="evenodd" d="M2.89 3.89C1 5.798 1 8.849 1 14.96V16.04C1 22.142 1 25.193 2.89 27.11C4.798 29 7.849 29 13.96 29H15.04C21.142 29 24.193 29 26.11 27.11C28 25.202 28 22.151 28 16.04V14.96C28 8.858 28 5.807 26.11 3.89C24.202 2 21.151 2 15.04 2H13.96C7.858 2 4.807 2 2.89 3.89ZM5.554 10.217C5.698 17.237 9.208 21.449 15.364 21.449H15.724V17.435C17.983 17.66 19.693 19.316 20.377 21.449H23.572C23.2444 20.237 22.6633 19.1081 21.8675 18.137C21.0717 17.1659 20.079 16.3745 18.955 15.815C19.9622 15.2017 20.8322 14.3871 21.5104 13.4224C22.1887 12.4576 22.6607 11.3634 22.897 10.208H19.999C19.369 12.44 17.497 14.465 15.724 14.654V10.217H12.817V17.993C11.017 17.543 8.749 15.365 8.64999 10.217H5.554Z" fill="#0077FF"/>
</g>
<defs>
<clipPath id="clip0_2054_221">
<rect width="30" height="30" fill="white"/>
</clipPath>
</defs>
</svg>
