<svg width="260" height="55" viewBox="0 0 260 55" fill="none" xmlns="http://www.w3.org/2000/svg">
<path fill-rule="evenodd" clip-rule="evenodd" d="M76.0226 28.0529C75.6755 28.5034 75.5723 28.5034 75.1033 28.9821C74.7093 29.3763 74.5686 29.6579 74.2027 30.0709L64.1187 39.776C56.5393 45.8581 45.536 51.2831 34.2795 49.4341C25.9121 48.0544 19.8054 43.1643 15.5748 36.2938C12.4511 31.2254 8.2299 17.4186 7.92973 11.7307C9.97467 12.078 12.2447 12.7913 14.1677 13.3263C15.9688 13.8144 17.8074 14.3119 19.6741 14.8281C21.2688 15.2692 22.8822 15.7291 24.4863 16.1984C32.8255 18.6388 41.2679 21.6047 48.125 26.0912C50.048 27.3396 51.108 28.4659 52.562 29.5828C50.9861 26.4104 45.6861 21.1167 42.8063 19.1456C32.9381 12.4159 12.77 9.36547 6.24124 5.22626C3.83046 3.69635 2.72357 2.20398 0.913137 0.505127C0.247123 7.89187 4.01807 25.4154 7.56389 32.3986C11.2598 39.6727 12.6481 41.3622 17.6104 46.318C19.6741 48.3735 23.7921 50.8045 26.6813 51.912C41.7557 57.7031 58.5936 51.1799 68.415 39.7196C70.5725 37.2042 75.0751 31.1878 76.0226 28.0529Z" fill="#24A7D6"/>
<path fill-rule="evenodd" clip-rule="evenodd" d="M41.8964 16.527L61.4265 10.3323C63.6122 9.68466 66.0792 9.08396 68.1711 8.41756C68.2743 11.2897 65.1318 21.0698 63.3308 24.1578C57.0083 34.9892 45.4047 35.2332 35.1894 29.123C34.0168 28.419 33.1726 27.7526 32.1689 27.0017C28.7825 24.4769 24.8521 19.8497 24.2048 19.4367C24.6551 21.5204 27.9664 25.622 29.0733 26.9454C30.4804 28.6349 33.998 31.4507 35.9117 32.5676C41.5212 35.8339 49.2882 37.1855 56.1172 34.5668C61.7736 32.3987 65.826 27.4053 68.4431 21.9146C70.7038 17.1653 73.0114 7.41326 72.6643 1.32178C69.3812 5.88335 63.1901 6.48405 56.9145 8.42694C54.0441 9.31861 51.1268 10.2572 48.5941 11.5712C46.4741 12.6788 42.9658 15.0159 41.8964 16.527Z" fill="#FF4C62"/>
<path fill-rule="evenodd" clip-rule="evenodd" d="M34.2325 1.21847C26.5311 2.29785 28.4917 13.5704 35.8929 12.3314C42.9657 11.1488 41.5024 0.195401 34.2325 1.21847Z" fill="#FF4C62"/>
<path fill-rule="evenodd" clip-rule="evenodd" d="M49.6353 1.82858C44.7762 3.33972 47.1213 10.0413 51.5864 8.81173C56.1359 7.5634 54.2504 0.392533 49.6353 1.82858Z" fill="#FF4C62"/>
<path d="M97.5413 37.1291C95.1681 37.1291 93.0387 36.5378 91.1532 35.3458C89.2677 34.1538 87.7762 32.5488 86.6881 30.512C85.6 28.4847 85.0559 26.1757 85.0559 23.604C85.0559 21.0416 85.6469 18.7327 86.8288 16.6771C88.0201 14.631 89.6336 13.0072 91.6598 11.8246C93.6953 10.6326 95.9748 10.0413 98.5169 10.0413C101.05 10.0413 103.329 10.6326 105.346 11.8246C107.363 13.0072 108.957 14.631 110.149 16.6771C111.331 18.7327 111.931 21.0416 111.931 23.604H110.027C110.027 26.1757 109.483 28.4847 108.395 30.512C107.297 32.5488 105.815 34.1538 103.929 35.3458C102.044 36.5378 99.9146 37.1291 97.5413 37.1291ZM98.5169 32.7365C100.177 32.7365 101.65 32.3329 102.954 31.5351C104.258 30.7467 105.28 29.6485 106.031 28.2688C106.772 26.889 107.147 25.331 107.147 23.604C107.147 21.8488 106.772 20.2813 106.031 18.9016C105.28 17.5125 104.258 16.4237 102.954 15.6259C101.65 14.8281 100.177 14.4339 98.5169 14.4339C96.8847 14.4339 95.4213 14.8281 94.0987 15.6259C92.7854 16.4237 91.7442 17.5125 90.975 18.9016C90.2152 20.2813 89.8306 21.8488 89.8306 23.604C89.8306 25.331 90.2152 26.889 90.975 28.2688C91.7442 29.6485 92.7854 30.7467 94.0987 31.5351C95.4213 32.3329 96.8847 32.7365 98.5169 32.7365ZM109.436 36.9789C108.723 36.9789 108.132 36.7443 107.663 36.275C107.184 35.7963 106.95 35.205 106.95 34.4917V27.0298L107.879 21.8488L111.931 23.604V34.4917C111.931 35.205 111.696 35.7963 111.218 36.275C110.749 36.7443 110.158 36.9789 109.436 36.9789ZM156.066 36.932C155.353 36.932 154.762 36.6974 154.284 36.2281C153.815 35.7494 153.58 35.1581 153.58 34.4447V12.7256C153.58 11.9748 153.815 11.3741 154.284 10.9235C154.762 10.4636 155.353 10.2384 156.066 10.2384C156.816 10.2384 157.398 10.4636 157.82 10.9235C158.242 11.3741 158.458 11.9748 158.458 12.7256V34.4447C158.458 35.1581 158.242 35.7494 157.82 36.2281C157.398 36.6974 156.816 36.932 156.066 36.932ZM136.02 36.932C135.307 36.932 134.725 36.6974 134.294 36.2281C133.853 35.7494 133.628 35.1581 133.628 34.4447V12.7256C133.628 11.9748 133.853 11.3741 134.294 10.9235C134.725 10.4636 135.307 10.2384 136.02 10.2384C136.77 10.2384 137.371 10.4636 137.83 10.9235C138.281 11.3741 138.506 11.9748 138.506 12.7256V34.4447C138.506 35.1581 138.281 35.7494 137.83 36.2281C137.371 36.6974 136.77 36.932 136.02 36.932ZM137.877 25.2653V20.8726H154.997V25.2653H137.877ZM184.114 36.932C183.429 36.932 182.866 36.6974 182.406 36.2281C181.947 35.7494 181.722 35.1581 181.722 34.4447V27.9966H174.846V27.3677C173.12 27.3677 171.591 27.0298 170.259 26.3447C168.927 25.6595 167.885 24.7115 167.144 23.5101C166.394 22.3087 166.019 20.9102 166.019 19.3146C166.019 17.5876 166.431 16.0389 167.266 14.6779C168.092 13.3076 169.227 12.2282 170.671 11.4304C172.125 10.6326 173.786 10.2384 175.671 10.2384H184.114C184.864 10.2384 185.464 10.4636 185.915 10.9235C186.374 11.3741 186.599 11.9748 186.599 12.7256V34.4917C186.571 35.205 186.327 35.7963 185.896 36.2468C185.455 36.7068 184.864 36.932 184.114 36.932ZM166.797 36.3501C166.281 35.8902 166.037 35.3833 166.066 34.8296C166.103 34.2758 166.291 33.7783 166.647 33.3184L172.604 25.5562H179.086L170.746 35.9559C170.193 36.6692 169.518 37.0165 168.702 36.9789C167.885 36.9508 167.257 36.7349 166.797 36.3501ZM175.671 23.9043H181.722V14.875H175.671C174.377 14.875 173.232 15.288 172.257 16.114C171.281 16.9493 170.793 18.0099 170.793 19.3146C170.793 20.6849 171.281 21.7831 172.257 22.6278C173.232 23.4819 174.377 23.9043 175.671 23.9043ZM217.818 36.932C217.095 36.932 216.504 36.6974 216.035 36.2281C215.566 35.7494 215.332 35.1581 215.332 34.4447V12.7256C215.332 11.9748 215.566 11.3741 216.035 10.9235C216.504 10.4636 217.095 10.2384 217.818 10.2384C218.568 10.2384 219.15 10.4636 219.572 10.9235C219.994 11.3741 220.21 11.9748 220.21 12.7256V34.4447C220.21 35.1581 219.994 35.7494 219.572 36.2281C219.15 36.6974 218.568 36.932 217.818 36.932ZM197.772 36.932C197.059 36.932 196.477 36.6974 196.036 36.2281C195.595 35.7494 195.38 35.1581 195.38 34.4447V12.7256C195.38 11.9748 195.595 11.3741 196.036 10.9235C196.477 10.4636 197.059 10.2384 197.772 10.2384C198.522 10.2384 199.122 10.4636 199.573 10.9235C200.032 11.3741 200.257 11.9748 200.257 12.7256V34.4447C200.257 35.1581 200.032 35.7494 199.573 36.2281C199.122 36.6974 198.522 36.932 197.772 36.932ZM199.62 25.2653V20.8726H216.739V25.2653H199.62ZM245.865 36.932C245.181 36.932 244.608 36.6974 244.158 36.2281C243.698 35.7494 243.473 35.1581 243.473 34.4447V27.9966H236.597V27.3677C234.871 27.3677 233.342 27.0298 232.01 26.3447C230.678 25.6595 229.637 24.7115 228.887 23.5101C228.136 22.3087 227.77 20.9102 227.77 19.3146C227.77 17.5876 228.183 16.0389 229.009 14.6779C229.843 13.3076 230.979 12.2282 232.423 11.4304C233.868 10.6326 235.537 10.2384 237.423 10.2384H245.865C246.606 10.2384 247.207 10.4636 247.666 10.9235C248.117 11.3741 248.351 11.9748 248.351 12.7256V34.4917C248.314 35.205 248.079 35.7963 247.638 36.2468C247.207 36.7068 246.606 36.932 245.865 36.932ZM228.549 36.3501C228.024 35.8902 227.78 35.3833 227.817 34.8296C227.845 34.2758 228.042 33.7783 228.399 33.3184L234.346 25.5562H240.837L232.498 35.9559C231.945 36.6692 231.26 37.0165 230.444 36.9789C229.637 36.9508 228.999 36.7349 228.549 36.3501ZM237.423 23.9043H243.473V14.875H237.423C236.119 14.875 234.984 15.288 234.008 16.114C233.033 16.9493 232.545 18.0099 232.545 19.3146C232.545 20.6849 233.033 21.7831 234.008 22.6278C234.984 23.4819 236.119 23.9043 237.423 23.9043Z" fill="#24A7D6"/>
<path d="M85.2529 49.5936C84.6525 49.5936 84.1085 49.4341 83.6301 49.1337C83.1517 48.8334 82.7764 48.4298 82.5044 47.9136C82.2324 47.3973 82.0917 46.8154 82.0917 46.1678C82.0917 45.5201 82.2418 44.9288 82.5419 44.4126C82.8421 43.8964 83.2455 43.4834 83.7614 43.183C84.2773 42.8827 84.8589 42.7325 85.4968 42.7325C86.144 42.7325 86.7162 42.8827 87.2228 43.183C87.7387 43.4834 88.1421 43.8964 88.4422 44.4126C88.7424 44.9288 88.8925 45.5201 88.8925 46.1678H88.4141C88.4141 46.8154 88.2734 47.3973 88.0014 47.9136C87.72 48.4298 87.3447 48.8334 86.8663 49.1337C86.3879 49.4341 85.8532 49.5936 85.2529 49.5936ZM85.4968 48.4767C85.9189 48.4767 86.2941 48.3735 86.6224 48.1764C86.9508 47.9699 87.2134 47.6977 87.401 47.3504C87.5886 46.9937 87.6824 46.5995 87.6824 46.1678C87.6824 45.7266 87.5886 45.323 87.401 44.9757C87.2134 44.6285 86.9508 44.3469 86.6224 44.1498C86.2941 43.9433 85.9189 43.8494 85.4968 43.8494C85.084 43.8494 84.7182 43.9433 84.3805 44.1498C84.0428 44.3469 83.7802 44.6285 83.5925 44.9757C83.3956 45.323 83.3018 45.7266 83.3018 46.1678C83.3018 46.5995 83.3956 46.9937 83.5925 47.3504C83.7802 47.6977 84.0428 47.9699 84.3805 48.1764C84.7182 48.3735 85.084 48.4767 85.4968 48.4767ZM88.264 49.5561C88.0858 49.5561 87.9357 49.4904 87.8138 49.3778C87.6918 49.2557 87.6355 49.1056 87.6355 48.9179V47.0313L87.87 45.7266L88.8925 46.1678V48.9179C88.8925 49.1056 88.8362 49.2557 88.7143 49.3778C88.5923 49.4904 88.4422 49.5561 88.264 49.5561ZM92.8511 49.5936C92.3351 49.5936 91.8755 49.5092 91.4628 49.3496C91.0594 49.19 90.7405 48.9648 90.5059 48.6738C90.2714 48.3828 90.1495 48.0543 90.1495 47.6883C90.1495 47.3129 90.2527 47.0031 90.4684 46.7403C90.6748 46.4681 90.9844 46.2522 91.3783 46.0645C91.7817 45.8862 92.2601 45.7454 92.8135 45.6328C93.3764 45.5201 93.7516 45.3793 93.958 45.2198C94.155 45.0602 94.2488 44.8537 94.2488 44.6003C94.2488 44.3375 94.1174 44.1404 93.8548 44.009C93.5921 43.887 93.2826 43.8213 92.9449 43.8213C92.6541 43.8213 92.3633 43.8682 92.0819 43.9527C91.8005 44.0465 91.5659 44.1779 91.3783 44.3563C91.247 44.4689 91.1157 44.544 90.9656 44.5815C90.8155 44.6285 90.7029 44.6191 90.6091 44.5628C90.4497 44.4595 90.3559 44.3375 90.3183 44.1779C90.2808 44.0184 90.3183 43.8776 90.4215 43.7462C90.6748 43.4458 91.0219 43.2018 91.4628 43.0141C91.913 42.8264 92.4102 42.7325 92.9543 42.7325C93.4139 42.7325 93.836 42.8076 94.2112 42.9484C94.5958 43.0986 94.896 43.3051 95.1211 43.5866C95.3463 43.8682 95.4588 44.2155 95.4588 44.6285C95.4588 45.0978 95.2618 45.5014 94.8773 45.8299C94.4927 46.1584 93.9017 46.4024 93.1137 46.5714C92.4665 46.7028 92.0162 46.8623 91.7723 47.0407C91.519 47.219 91.4065 47.4255 91.4065 47.6789C91.4159 47.9323 91.5378 48.1294 91.7817 48.2702C92.0162 48.411 92.382 48.4767 92.8511 48.4767C93.2826 48.4767 93.6484 48.4298 93.9486 48.3453C94.2488 48.2608 94.4833 48.1294 94.6615 47.9417C94.7741 47.8197 94.9054 47.7446 95.0555 47.6977C95.1962 47.6601 95.3557 47.7071 95.5057 47.8385C95.6464 47.9511 95.7215 48.0825 95.7215 48.2327C95.7215 48.3829 95.6558 48.5143 95.5339 48.6457C95.2618 48.9178 94.8866 49.1431 94.3988 49.3214C93.9111 49.4998 93.3951 49.5936 92.8511 49.5936ZM100.43 49.5936C99.7551 49.5936 99.1454 49.4435 98.6107 49.1525C98.0854 48.8615 97.6633 48.4579 97.3631 47.9417C97.0629 47.4255 96.9128 46.8342 96.9128 46.1678C96.9128 45.492 97.0629 44.9007 97.3443 44.3844C97.6257 43.8682 98.0197 43.4646 98.5169 43.1736C99.0234 42.8827 99.5956 42.7325 100.252 42.7325C100.89 42.7325 101.444 42.8733 101.903 43.1643C102.363 43.4458 102.719 43.84 102.963 44.3375C103.198 44.835 103.32 45.4075 103.32 46.0551C103.32 46.2147 103.273 46.3461 103.16 46.4493C103.057 46.5526 102.916 46.5995 102.757 46.5995H97.7758V45.614H102.719L102.213 45.9613C102.203 45.5483 102.119 45.1729 101.969 44.8537C101.809 44.5252 101.584 44.2718 101.303 44.0841C101.012 43.887 100.665 43.7931 100.252 43.7931C99.7832 43.7931 99.3799 43.8964 99.0422 44.1029C98.7139 44.3093 98.4606 44.5909 98.2824 44.9476C98.1135 45.3136 98.0291 45.7172 98.0291 46.1678C98.0291 46.6183 98.1323 47.0219 98.3386 47.3786C98.545 47.7352 98.8264 48.0074 99.1923 48.2139C99.5487 48.4204 99.9615 48.5236 100.43 48.5236C100.693 48.5236 100.946 48.4767 101.218 48.3829C101.49 48.289 101.706 48.1857 101.866 48.0543C101.988 47.9699 102.128 47.9229 102.269 47.9136C102.41 47.9136 102.541 47.9511 102.644 48.045C102.785 48.167 102.86 48.3078 102.869 48.4486C102.879 48.5987 102.813 48.7301 102.672 48.8334C102.391 49.0586 102.044 49.237 101.622 49.3778C101.209 49.5185 100.815 49.5936 100.43 49.5936ZM110.608 49.5373C110.421 49.5373 110.271 49.481 110.158 49.359C110.036 49.237 109.98 49.0962 109.98 48.9085V43.4177C109.98 43.2206 110.036 43.0704 110.158 42.9578C110.271 42.8451 110.421 42.7794 110.608 42.7794C110.796 42.7794 110.946 42.8451 111.049 42.9578C111.152 43.0704 111.209 43.2206 111.209 43.4177V48.9085C111.209 49.0962 111.152 49.237 111.049 49.359C110.946 49.481 110.796 49.5373 110.608 49.5373ZM105.533 49.5373C105.355 49.5373 105.205 49.481 105.093 49.359C104.98 49.237 104.924 49.0962 104.924 48.9085V43.4177C104.924 43.2206 104.98 43.0704 105.093 42.9578C105.205 42.8451 105.355 42.7794 105.533 42.7794C105.721 42.7794 105.871 42.8451 105.993 42.9578C106.106 43.0704 106.162 43.2206 106.162 43.4177V48.9085C106.162 49.0962 106.106 49.237 105.993 49.359C105.871 49.481 105.721 49.5373 105.533 49.5373ZM106.002 46.5901V45.4732H110.336V46.5901H106.002ZM122.296 49.5561C122.118 49.5561 121.968 49.4904 121.846 49.3778C121.724 49.2557 121.668 49.1056 121.668 48.9179V45.3887C121.668 44.8725 121.537 44.4877 121.283 44.2343C121.03 43.9808 120.692 43.8588 120.28 43.8588C119.857 43.8588 119.501 44.009 119.229 44.3C118.957 44.6003 118.816 44.9758 118.816 45.4357H117.794C117.794 44.9007 117.906 44.4314 118.131 44.0278C118.366 43.6148 118.694 43.2957 119.107 43.0704C119.52 42.8358 119.998 42.7231 120.533 42.7231C121.002 42.7231 121.415 42.8264 121.78 43.0329C122.137 43.2393 122.418 43.5397 122.625 43.9339C122.822 44.3375 122.925 44.8256 122.925 45.3887V48.9179C122.925 49.1056 122.869 49.2557 122.756 49.3778C122.634 49.4904 122.484 49.5561 122.296 49.5561ZM114.06 49.5561C113.882 49.5561 113.732 49.4904 113.61 49.3778C113.488 49.2557 113.432 49.1056 113.432 48.9179V43.4271C113.432 43.2393 113.488 43.0798 113.61 42.9672C113.732 42.8545 113.882 42.7982 114.06 42.7982C114.248 42.7982 114.407 42.8545 114.52 42.9672C114.633 43.0798 114.689 43.2393 114.689 43.4271V48.9179C114.689 49.1056 114.633 49.2557 114.52 49.3778C114.407 49.4904 114.248 49.5561 114.06 49.5561ZM118.188 49.5561C118.009 49.5561 117.85 49.4904 117.737 49.3778C117.616 49.2557 117.559 49.1056 117.559 48.9179V45.3887C117.559 44.8725 117.428 44.4877 117.175 44.2343C116.921 43.9808 116.584 43.8588 116.171 43.8588C115.749 43.8588 115.392 44.009 115.111 44.3C114.83 44.6003 114.689 44.9758 114.689 45.4357H113.91C113.91 44.9007 114.023 44.4314 114.239 44.0278C114.454 43.6148 114.745 43.2957 115.12 43.0704C115.505 42.8358 115.936 42.7231 116.424 42.7231C116.893 42.7231 117.306 42.8264 117.672 43.0329C118.028 43.2393 118.31 43.5397 118.516 43.9339C118.713 44.3375 118.816 44.8256 118.816 45.3887V48.9179C118.816 49.1056 118.76 49.2557 118.638 49.3778C118.525 49.4904 118.375 49.5561 118.188 49.5561ZM128.075 49.5936C127.418 49.5936 126.827 49.4341 126.311 49.1337C125.805 48.8334 125.401 48.4298 125.101 47.9136C124.81 47.3973 124.67 46.8154 124.67 46.1678C124.67 45.5014 124.81 44.91 125.101 44.3844C125.383 43.8682 125.786 43.4646 126.283 43.1736C126.79 42.8827 127.362 42.7325 128.009 42.7325C128.497 42.7325 128.938 42.8264 129.341 43.0141C129.744 43.2018 130.11 43.474 130.429 43.8494C130.551 43.9808 130.589 44.1122 130.551 44.253C130.523 44.3938 130.429 44.5158 130.279 44.6285C130.167 44.7036 130.045 44.7317 129.904 44.7036C129.763 44.6754 129.632 44.6003 129.519 44.4877C129.116 44.0559 128.609 43.8494 128.009 43.8494C127.596 43.8494 127.221 43.9433 126.902 44.1404C126.583 44.3281 126.33 44.6003 126.152 44.9476C125.964 45.2949 125.88 45.6985 125.88 46.1678C125.88 46.6089 125.973 47.0031 126.152 47.3504C126.339 47.6977 126.593 47.9699 126.921 48.1764C127.259 48.3735 127.634 48.4767 128.075 48.4767C128.366 48.4767 128.619 48.4392 128.835 48.3735C129.05 48.2984 129.247 48.1951 129.435 48.045C129.566 47.9417 129.698 47.876 129.838 47.8666C129.979 47.8572 130.101 47.8948 130.213 47.9793C130.345 48.1013 130.429 48.2233 130.448 48.3735C130.457 48.5143 130.41 48.6457 130.298 48.7583C129.707 49.3121 128.966 49.5936 128.075 49.5936ZM141.292 49.5561C141.114 49.5561 140.963 49.4904 140.842 49.3778C140.729 49.2557 140.663 49.1056 140.663 48.9179V45.3887C140.663 44.8725 140.541 44.4877 140.279 44.2343C140.025 43.9808 139.697 43.8588 139.284 43.8588C138.853 43.8588 138.506 44.009 138.224 44.3C137.952 44.6003 137.812 44.9758 137.812 45.4357H136.789C136.789 44.9007 136.902 44.4314 137.136 44.0278C137.361 43.6148 137.69 43.2957 138.102 43.0704C138.515 42.8358 138.994 42.7231 139.528 42.7231C139.997 42.7231 140.41 42.8264 140.776 43.0329C141.142 43.2393 141.423 43.5397 141.62 43.9339C141.826 44.3375 141.92 44.8256 141.92 45.3887V48.9179C141.92 49.1056 141.864 49.2557 141.751 49.3778C141.639 49.4904 141.479 49.5561 141.292 49.5561ZM133.065 49.5561C132.878 49.5561 132.727 49.4904 132.605 49.3778C132.493 49.2557 132.427 49.1056 132.427 48.9179V43.4271C132.427 43.2393 132.493 43.0798 132.605 42.9672C132.727 42.8545 132.878 42.7982 133.065 42.7982C133.253 42.7982 133.403 42.8545 133.515 42.9672C133.628 43.0798 133.694 43.2393 133.694 43.4271V48.9179C133.694 49.1056 133.628 49.2557 133.515 49.3778C133.403 49.4904 133.253 49.5561 133.065 49.5561ZM137.183 49.5561C137.005 49.5561 136.855 49.4904 136.733 49.3778C136.611 49.2557 136.555 49.1056 136.555 48.9179V45.3887C136.555 44.8725 136.423 44.4877 136.17 44.2343C135.917 43.9808 135.579 43.8588 135.176 43.8588C134.744 43.8588 134.388 44.009 134.106 44.3C133.834 44.6003 133.694 44.9758 133.694 45.4357H132.915C132.915 44.9007 133.018 44.4314 133.234 44.0278C133.45 43.6148 133.741 43.2957 134.125 43.0704C134.5 42.8358 134.932 42.7231 135.42 42.7231C135.889 42.7231 136.301 42.8264 136.667 43.0329C137.024 43.2393 137.314 43.5397 137.511 43.9339C137.708 44.3375 137.812 44.8256 137.812 45.3887V48.9179C137.812 49.1056 137.755 49.2557 137.643 49.3778C137.53 49.4904 137.371 49.5561 137.183 49.5561ZM144.641 49.5373C144.462 49.5373 144.312 49.481 144.19 49.359C144.068 49.237 144.012 49.0962 144.012 48.9085V43.3989C144.031 43.2206 144.097 43.0704 144.209 42.9578C144.322 42.8451 144.472 42.7794 144.641 42.7794C144.828 42.7794 144.978 42.8451 145.1 42.9578C145.213 43.0704 145.269 43.2206 145.269 43.4177V45.5389H147.661V45.7829C148.121 45.7829 148.515 45.8674 148.871 46.0176C149.218 46.1772 149.49 46.393 149.687 46.6652C149.884 46.9468 149.988 47.2659 149.988 47.6226C149.988 47.998 149.884 48.3265 149.687 48.6175C149.49 48.8991 149.218 49.1243 148.871 49.2933C148.515 49.4528 148.121 49.5373 147.661 49.5373H144.641ZM145.269 48.3641H147.661C147.989 48.3641 148.261 48.289 148.468 48.1294C148.674 47.9699 148.777 47.754 148.777 47.5006C148.777 47.2284 148.674 47.0031 148.468 46.8342C148.261 46.6652 147.989 46.5714 147.661 46.5714H145.269V48.3641ZM146.686 46.2053V45.5389H147.858C148.064 45.5389 148.233 45.4544 148.365 45.2949C148.496 45.1353 148.562 44.9288 148.562 44.6848C148.562 44.4689 148.487 44.2906 148.327 44.1498C148.177 44.0184 147.98 43.9433 147.736 43.9433H144.65V42.7794H147.736C148.13 42.7794 148.468 42.8545 148.768 43.0141C149.068 43.1643 149.303 43.3708 149.481 43.6429C149.65 43.9058 149.734 44.2155 149.734 44.5628C149.734 45.0415 149.556 45.4357 149.2 45.7454C148.843 46.0551 148.393 46.2053 147.858 46.2053H146.686ZM154.593 49.5936C153.927 49.5936 153.336 49.4435 152.82 49.1525C152.314 48.8615 151.91 48.4579 151.62 47.9417C151.329 47.4255 151.179 46.8342 151.179 46.1678C151.179 45.492 151.329 44.9007 151.62 44.3844C151.91 43.8682 152.314 43.4646 152.82 43.1736C153.336 42.8827 153.927 42.7325 154.593 42.7325C155.25 42.7325 155.832 42.8827 156.338 43.1736C156.854 43.4646 157.257 43.8682 157.548 44.3844C157.839 44.9007 157.98 45.492 157.98 46.1678C157.98 46.8342 157.839 47.4255 157.548 47.9417C157.267 48.4579 156.863 48.8615 156.357 49.1525C155.841 49.4435 155.259 49.5936 154.593 49.5936ZM154.593 48.4767C155.015 48.4767 155.4 48.3829 155.728 48.1857C156.057 47.9793 156.31 47.7071 156.498 47.3692C156.685 47.0219 156.77 46.6183 156.77 46.1678C156.77 45.7172 156.685 45.3136 156.498 44.9664C156.31 44.6097 156.057 44.3375 155.728 44.1404C155.4 43.9433 155.015 43.8494 154.593 43.8494C154.162 43.8494 153.787 43.9433 153.458 44.1404C153.121 44.3375 152.867 44.6097 152.68 44.9664C152.483 45.3136 152.389 45.7172 152.389 46.1678C152.389 46.6183 152.483 47.0219 152.68 47.3692C152.867 47.7071 153.121 47.9793 153.458 48.1857C153.787 48.3829 154.162 48.4767 154.593 48.4767ZM169.152 49.5373C168.974 49.5373 168.823 49.481 168.702 49.359C168.589 49.237 168.523 49.0962 168.523 48.9085V43.4177C168.523 43.2206 168.589 43.0704 168.702 42.9578C168.823 42.8451 168.974 42.7794 169.152 42.7794C169.349 42.7794 169.489 42.8451 169.602 42.9578C169.705 43.0704 169.762 43.2206 169.762 43.4177V48.9085C169.762 49.0962 169.705 49.237 169.602 49.359C169.489 49.481 169.349 49.5373 169.152 49.5373ZM164.086 49.5373C163.899 49.5373 163.758 49.481 163.645 49.359C163.533 49.237 163.477 49.0962 163.477 48.9085V43.4177C163.477 43.2206 163.533 43.0704 163.645 42.9578C163.758 42.8451 163.899 42.7794 164.086 42.7794C164.274 42.7794 164.424 42.8451 164.537 42.9578C164.659 43.0704 164.715 43.2206 164.715 43.4177V48.9085C164.715 49.0962 164.659 49.237 164.537 49.359C164.424 49.481 164.274 49.5373 164.086 49.5373ZM164.555 46.5901V45.4732H168.889V46.5901H164.555ZM176.253 49.5373C176.084 49.5373 175.934 49.481 175.821 49.359C175.709 49.237 175.652 49.0962 175.652 48.9085V47.2753H173.908V47.1157C173.476 47.1157 173.082 47.0313 172.745 46.8623C172.407 46.684 172.144 46.4493 171.957 46.1396C171.769 45.8393 171.675 45.4826 171.675 45.079C171.675 44.6472 171.778 44.253 171.985 43.9058C172.2 43.5585 172.491 43.2863 172.857 43.0892C173.223 42.8827 173.645 42.7794 174.123 42.7794H176.253C176.44 42.7794 176.6 42.8451 176.712 42.9578C176.825 43.0704 176.881 43.2206 176.881 43.4177V48.9179C176.872 49.1056 176.816 49.2557 176.703 49.3684C176.591 49.481 176.44 49.5373 176.253 49.5373ZM171.872 49.3965C171.741 49.2745 171.675 49.1525 171.685 49.0117C171.694 48.8709 171.741 48.7395 171.835 48.6269L173.345 46.6652H174.986L172.876 49.2933C172.735 49.4716 172.557 49.5561 172.351 49.5561C172.144 49.5467 171.985 49.4904 171.872 49.3965ZM174.123 46.2429H175.652V43.9527H174.123C173.786 43.9527 173.504 44.0653 173.251 44.2718C173.007 44.4783 172.885 44.7505 172.885 45.079C172.885 45.4263 173.007 45.7079 173.251 45.9237C173.504 46.1302 173.786 46.2429 174.123 46.2429ZM184.78 49.5373C184.601 49.5373 184.451 49.481 184.329 49.359C184.217 49.237 184.151 49.0962 184.151 48.9085V43.4177C184.151 43.2206 184.217 43.0704 184.329 42.9578C184.451 42.8451 184.601 42.7794 184.78 42.7794C184.977 42.7794 185.117 42.8451 185.23 42.9578C185.333 43.0704 185.389 43.2206 185.389 43.4177V48.9085C185.389 49.0962 185.333 49.237 185.23 49.359C185.117 49.481 184.977 49.5373 184.78 49.5373ZM179.714 49.5373C179.527 49.5373 179.386 49.481 179.273 49.359C179.161 49.237 179.104 49.0962 179.104 48.9085V43.4177C179.104 43.2206 179.161 43.0704 179.273 42.9578C179.386 42.8451 179.527 42.7794 179.714 42.7794C179.902 42.7794 180.052 42.8451 180.164 42.9578C180.286 43.0704 180.343 43.2206 180.343 43.4177V48.9085C180.343 49.0962 180.286 49.237 180.164 49.359C180.052 49.481 179.902 49.5373 179.714 49.5373ZM180.183 46.5901V45.4732H184.517V46.5901H180.183ZM190.661 49.65C190.042 49.65 189.507 49.5373 189.048 49.3214C188.598 49.0962 188.241 48.7771 187.988 48.3735C187.734 47.9699 187.613 47.4818 187.613 46.9374V43.3989C187.631 43.23 187.697 43.0798 187.819 42.9578C187.931 42.8451 188.072 42.7794 188.241 42.7794C188.419 42.7794 188.569 42.8451 188.691 42.9578C188.813 43.0798 188.87 43.23 188.87 43.4177V44.7974H190.896C191.43 44.7974 191.909 44.8913 192.331 45.0696C192.753 45.2573 193.091 45.5295 193.335 45.8768C193.588 46.2241 193.71 46.6464 193.71 47.1345C193.71 47.6132 193.588 48.045 193.335 48.4298C193.081 48.8052 192.734 49.1056 192.275 49.3214C191.824 49.5373 191.29 49.65 190.661 49.65ZM190.652 48.4861C191.177 48.4861 191.618 48.3735 191.965 48.1482C192.322 47.9229 192.5 47.585 192.5 47.1345C192.5 46.7028 192.35 46.3836 192.04 46.1772C191.74 45.9613 191.355 45.858 190.896 45.858H188.87V46.9093C188.87 47.2002 188.945 47.4724 189.104 47.7071C189.264 47.9511 189.47 48.1388 189.742 48.2796C190.005 48.4204 190.314 48.4861 190.652 48.4861ZM199.62 49.5373C199.441 49.5373 199.291 49.481 199.169 49.359C199.057 49.237 198.991 49.0962 198.991 48.9085V43.3989C199.01 43.2206 199.075 43.0704 199.188 42.9578C199.31 42.8451 199.451 42.7794 199.62 42.7794C199.807 42.7794 199.967 42.8451 200.079 42.9578C200.192 43.0704 200.248 43.2206 200.248 43.4177V45.5389H202.649V45.7829C203.1 45.7829 203.503 45.8674 203.85 46.0176C204.197 46.1772 204.479 46.393 204.676 46.6652C204.873 46.9468 204.966 47.2659 204.966 47.6226C204.966 47.998 204.873 48.3265 204.676 48.6175C204.479 48.8991 204.197 49.1243 203.85 49.2933C203.503 49.4528 203.1 49.5373 202.649 49.5373H199.62ZM200.248 48.3641H202.649C202.978 48.3641 203.24 48.289 203.447 48.1294C203.653 47.9699 203.756 47.754 203.756 47.5006C203.756 47.2284 203.653 47.0031 203.447 46.8342C203.24 46.6652 202.978 46.5714 202.649 46.5714H200.248V48.3641ZM201.674 46.2053V45.5389H202.846C203.053 45.5389 203.222 45.4544 203.353 45.2949C203.484 45.1353 203.55 44.9288 203.55 44.6848C203.55 44.4689 203.466 44.2906 203.315 44.1498C203.156 44.0184 202.959 43.9433 202.725 43.9433H199.638V42.7794H202.725C203.109 42.7794 203.447 42.8545 203.747 43.0141C204.057 43.1643 204.291 43.3708 204.46 43.6429C204.638 43.9058 204.723 44.2155 204.723 44.5628C204.723 45.0415 204.544 45.4357 204.188 45.7454C203.822 46.0551 203.381 46.2053 202.846 46.2053H201.674ZM210.895 49.5373C210.707 49.5373 210.557 49.481 210.435 49.3496C210.313 49.2276 210.248 49.0774 210.248 48.8991V40.5362C210.248 40.3485 210.313 40.1889 210.435 40.0763C210.557 39.9543 210.707 39.8979 210.895 39.8979C211.139 39.8979 211.326 40.0106 211.458 40.2358L215.322 47.9793H214.928L218.69 40.2358C218.831 40.0106 219.018 39.8979 219.262 39.8979C219.441 39.8979 219.591 39.9543 219.722 40.0763C219.844 40.1889 219.9 40.3485 219.9 40.5362V48.8991C219.9 49.0774 219.844 49.2276 219.713 49.3496C219.581 49.481 219.431 49.5373 219.262 49.5373C219.084 49.5373 218.925 49.481 218.803 49.3496C218.681 49.2276 218.624 49.0774 218.624 48.8991V42.3101L218.868 42.2538L215.632 48.8521C215.491 49.0586 215.313 49.1713 215.079 49.1713C214.807 49.1713 214.61 49.0399 214.488 48.7864L211.289 42.3758L211.533 42.3101V48.8991C211.533 49.0774 211.476 49.2276 211.355 49.3496C211.223 49.481 211.073 49.5373 210.895 49.5373ZM225.313 49.5936C224.647 49.5936 224.056 49.4435 223.549 49.1525C223.033 48.8615 222.63 48.4579 222.339 47.9417C222.048 47.4255 221.908 46.8342 221.908 46.1678C221.908 45.492 222.048 44.9007 222.339 44.3844C222.63 43.8682 223.033 43.4646 223.549 43.1736C224.056 42.8827 224.647 42.7325 225.313 42.7325C225.969 42.7325 226.551 42.8827 227.067 43.1736C227.573 43.4646 227.977 43.8682 228.268 44.3844C228.558 44.9007 228.708 45.492 228.708 46.1678C228.708 46.8342 228.558 47.4255 228.277 47.9417C227.986 48.4579 227.583 48.8615 227.076 49.1525C226.57 49.4435 225.979 49.5936 225.313 49.5936ZM225.313 48.4767C225.735 48.4767 226.119 48.3829 226.448 48.1857C226.776 47.9793 227.029 47.7071 227.217 47.3692C227.404 47.0219 227.498 46.6183 227.498 46.1678C227.498 45.7172 227.404 45.3136 227.217 44.9664C227.029 44.6097 226.776 44.3375 226.448 44.1404C226.119 43.9433 225.735 43.8494 225.313 43.8494C224.881 43.8494 224.506 43.9433 224.178 44.1404C223.849 44.3375 223.587 44.6097 223.399 44.9664C223.211 45.3136 223.118 45.7172 223.118 46.1678C223.118 46.6183 223.211 47.0219 223.399 47.3692C223.587 47.7071 223.849 47.9793 224.178 48.1857C224.506 48.3829 224.881 48.4767 225.313 48.4767ZM233.643 49.5936C232.986 49.5936 232.395 49.4341 231.888 49.1337C231.372 48.8334 230.969 48.4298 230.678 47.9136C230.387 47.3973 230.237 46.8154 230.237 46.1678C230.237 45.5014 230.378 44.91 230.669 44.3844C230.96 43.8682 231.354 43.4646 231.851 43.1736C232.357 42.8827 232.93 42.7325 233.586 42.7325C234.065 42.7325 234.515 42.8264 234.918 43.0141C235.322 43.2018 235.678 43.474 235.997 43.8494C236.119 43.9808 236.156 44.1122 236.128 44.253C236.091 44.3938 235.997 44.5158 235.856 44.6285C235.734 44.7036 235.612 44.7317 235.472 44.7036C235.331 44.6754 235.2 44.6003 235.087 44.4877C234.684 44.0559 234.187 43.8494 233.586 43.8494C233.164 43.8494 232.789 43.9433 232.47 44.1404C232.151 44.3281 231.898 44.6003 231.72 44.9476C231.532 45.2949 231.447 45.6985 231.447 46.1678C231.447 46.6089 231.541 47.0031 231.72 47.3504C231.907 47.6977 232.17 47.9699 232.498 48.1764C232.826 48.3735 233.211 48.4767 233.643 48.4767C233.933 48.4767 234.187 48.4392 234.402 48.3735C234.618 48.2984 234.824 48.1951 235.003 48.045C235.134 47.9417 235.265 47.876 235.406 47.8666C235.547 47.8572 235.669 47.8948 235.781 47.9793C235.922 48.1013 235.997 48.2233 236.016 48.3735C236.035 48.5143 235.978 48.6457 235.866 48.7583C235.275 49.3121 234.534 49.5936 233.643 49.5936ZM243.483 49.3965C243.37 49.4904 243.229 49.5373 243.032 49.5373C242.835 49.5279 242.685 49.4716 242.582 49.3684L239.58 46.1396L242.413 42.9765C242.516 42.8639 242.667 42.7982 242.854 42.7794C243.051 42.7701 243.201 42.8076 243.314 42.9108C243.436 43.0235 243.501 43.1549 243.52 43.2957C243.539 43.4365 243.492 43.5679 243.379 43.6805L241.147 46.0833L243.52 48.6269C243.623 48.7301 243.68 48.8615 243.68 49.0023C243.68 49.1431 243.614 49.2745 243.483 49.3965ZM238.595 49.5561C238.408 49.5561 238.267 49.4904 238.164 49.3778C238.051 49.2557 238.004 49.1056 238.004 48.9179V43.4177C238.004 43.2206 238.051 43.0704 238.164 42.9578C238.267 42.8451 238.408 42.7794 238.595 42.7794C238.783 42.7794 238.933 42.8451 239.055 42.9578C239.177 43.0704 239.233 43.2206 239.233 43.4177V45.4732H240.819V46.6371H239.233V48.9179C239.233 49.1056 239.177 49.2557 239.055 49.3778C238.933 49.4904 238.783 49.5561 238.595 49.5561ZM245.856 49.5373C245.668 49.5373 245.518 49.481 245.406 49.359C245.284 49.237 245.227 49.0962 245.227 48.9085V43.3989C245.237 43.2206 245.302 43.0704 245.424 42.9578C245.537 42.8451 245.678 42.7794 245.856 42.7794C246.044 42.7794 246.194 42.8451 246.306 42.9578C246.428 43.0704 246.484 43.2206 246.484 43.4177V45.5389H248.876V45.7829C249.327 45.7829 249.73 45.8674 250.077 46.0176C250.434 46.1772 250.706 46.393 250.903 46.6652C251.1 46.9468 251.193 47.2659 251.193 47.6226C251.193 47.998 251.1 48.3265 250.903 48.6175C250.706 48.8991 250.434 49.1243 250.077 49.2933C249.73 49.4528 249.327 49.5373 248.876 49.5373H245.856ZM246.484 48.3641H248.876C249.205 48.3641 249.477 48.289 249.683 48.1294C249.889 47.9699 249.993 47.754 249.993 47.5006C249.993 47.2284 249.889 47.0031 249.683 46.8342C249.477 46.6652 249.205 46.5714 248.876 46.5714H246.484V48.3641ZM247.901 46.2053V45.5389H249.073C249.28 45.5389 249.449 45.4544 249.58 45.2949C249.711 45.1353 249.777 44.9288 249.777 44.6848C249.777 44.4689 249.702 44.2906 249.542 44.1498C249.383 44.0184 249.186 43.9433 248.951 43.9433H245.865V42.7794H248.951C249.336 42.7794 249.683 42.8545 249.983 43.0141C250.283 43.1643 250.518 43.3708 250.696 43.6429C250.865 43.9058 250.949 44.2155 250.949 44.5628C250.949 45.0415 250.771 45.4357 250.415 45.7454C250.058 46.0551 249.608 46.2053 249.073 46.2053H247.901ZM255.912 49.5936C255.227 49.5936 254.627 49.4435 254.092 49.1525C253.557 48.8615 253.145 48.4579 252.844 47.9417C252.544 47.4255 252.394 46.8342 252.394 46.1678C252.394 45.492 252.535 44.9007 252.826 44.3844C253.107 43.8682 253.501 43.4646 253.998 43.1736C254.505 42.8827 255.077 42.7325 255.724 42.7325C256.371 42.7325 256.925 42.8733 257.384 43.1643C257.844 43.4458 258.191 43.84 258.435 44.3375C258.679 44.835 258.801 45.4075 258.801 46.0551C258.801 46.2147 258.745 46.3461 258.641 46.4493C258.538 46.5526 258.398 46.5995 258.238 46.5995H253.257V45.614H258.201L257.694 45.9613C257.685 45.5483 257.6 45.1729 257.441 44.8537C257.291 44.5252 257.066 44.2718 256.775 44.0841C256.493 43.887 256.137 43.7931 255.724 43.7931C255.255 43.7931 254.861 43.8964 254.523 44.1029C254.195 44.3093 253.942 44.5909 253.764 44.9476C253.595 45.3136 253.51 45.7172 253.51 46.1678C253.51 46.6183 253.604 47.0219 253.811 47.3786C254.017 47.7352 254.308 48.0074 254.664 48.2139C255.03 48.4204 255.443 48.5236 255.912 48.5236C256.165 48.5236 256.428 48.4767 256.7 48.3829C256.962 48.289 257.178 48.1857 257.347 48.0543C257.469 47.9699 257.6 47.9229 257.75 47.9136C257.891 47.9136 258.013 47.9511 258.126 48.045C258.266 48.167 258.332 48.3078 258.341 48.4486C258.351 48.5987 258.285 48.7301 258.144 48.8334C257.872 49.0586 257.516 49.237 257.103 49.3778C256.69 49.5185 256.287 49.5936 255.912 49.5936Z" fill="#24A7D6"/>
<path fill-rule="evenodd" clip-rule="evenodd" d="M97.7759 17.8316C90.4779 18.8547 92.3352 29.5547 99.3518 28.3815C106.068 27.2551 104.68 16.8555 97.7759 17.8316Z" fill="#FF4C62"/>
<path d="M117.372 25.5186C116.931 25.5186 116.556 25.3684 116.255 25.0681C115.946 24.7583 115.796 24.3829 115.796 23.9417C115.796 23.4631 115.946 23.0782 116.255 22.7685C116.556 22.4682 116.931 22.3086 117.372 22.3086H127.165C127.643 22.3086 128.028 22.4682 128.337 22.7685C128.638 23.0782 128.797 23.4631 128.797 23.9417C128.797 24.3829 128.638 24.7583 128.337 25.0681C128.028 25.3684 127.643 25.5186 127.165 25.5186H117.372Z" fill="#24A7D6"/>
</svg>
