<svg width="26" height="18" viewBox="0 0 26 18" fill="none" xmlns="http://www.w3.org/2000/svg">
<path d="M6.35745 0H11.7191C10.0851 1.75714 8.73192 3.62143 7.65957 5.59286C6.6383 7.56429 6.22979 9.32143 6.43404 10.8643L5.59149 8.42143C7.22553 8.37857 8.57872 8.82857 9.65106 9.77143C10.7745 10.6714 11.3362 11.8071 11.3362 13.1786C11.3362 14.55 10.8255 15.7071 9.80426 16.65C8.78298 17.55 7.45532 18 5.82128 18C4.13617 18 2.73191 17.5071 1.60851 16.5214C0.53617 15.5357 0 14.2071 0 12.5357C0 10.5214 0.587234 8.42143 1.7617 6.23571C2.93617 4.00714 4.46809 1.92857 6.35745 0ZM19.8383 0H25.2C23.566 1.75714 22.2128 3.62143 21.1404 5.59286C20.1192 7.56429 19.7106 9.32143 19.9149 10.8643L19.0723 8.42143C20.7064 8.37857 22.0596 8.82857 23.1319 9.77143C24.2553 10.6714 24.817 11.8071 24.817 13.1786C24.817 14.55 24.3064 15.7071 23.2851 16.65C22.2638 17.55 20.9362 18 19.3021 18C17.617 18 16.2128 17.5071 15.0894 16.5214C14.017 15.5357 13.4809 14.2071 13.4809 12.5357C13.4809 10.5214 14.0681 8.42143 15.2426 6.23571C16.417 4.00714 17.9489 1.92857 19.8383 0Z" fill="#88CBE3"/>
</svg>
