<svg width="16" height="16" viewBox="0 0 16 16" fill="none" xmlns="http://www.w3.org/2000/svg">
<path d="M11.2308 16C10.5128 16 9.9359 15.6795 9.5 15.0385C9.24359 14.6538 8.9359 14.0128 8.57692 13.1154C8.21795 12.1923 7.91026 11.2821 7.65384 10.3846C7.39744 11.2821 7.08974 12.1923 6.73077 13.1154C6.37179 14.0128 6.0641 14.6538 5.80769 15.0385C5.37179 15.6795 4.79487 16 4.07692 16C3.51282 16 3.01282 15.7949 2.57692 15.3846C2.16667 14.9744 1.96154 14.5128 1.96154 14C1.96154 13.4359 2.14103 12.8974 2.5 12.3846C2.78205 12 3.25641 11.5 3.92308 10.8846C4.61538 10.2436 5.32051 9.66667 6.03846 9.15385C5.14102 9.15385 4.26923 9.11539 3.42308 9.03846C2.60256 8.96154 1.97436 8.85898 1.53846 8.73077C1.05128 8.60256 0.666667 8.35897 0.384615 8C0.128205 7.64102 0 7.21795 0 6.73077C0 6.0641 0.179487 5.52564 0.538461 5.11538C0.923077 4.70513 1.39744 4.5 1.96154 4.5C2.37179 4.5 2.73077 4.5641 3.03846 4.69231C3.39744 4.84615 3.87179 5.12821 4.46154 5.53846C5.07692 5.94872 5.80769 6.5 6.65385 7.19231C6.34615 6.26923 6.08974 5.33333 5.88461 4.38462C5.67949 3.41026 5.57692 2.69231 5.57692 2.23077C5.57692 1.5641 5.75641 1.02564 6.11538 0.615386C6.5 0.205129 7.01282 0 7.65384 0C8.29487 0 8.79487 0.205129 9.15384 0.615386C9.53846 1.02564 9.73077 1.5641 9.73077 2.23077C9.73077 2.69231 9.6282 3.41026 9.42308 4.38462C9.21795 5.33333 8.96154 6.26923 8.65384 7.19231C9.5 6.5 10.2179 5.94872 10.8077 5.53846C11.4231 5.12821 11.9103 4.84615 12.2692 4.69231C12.6026 4.5641 12.9615 4.5 13.3462 4.5C13.9103 4.5 14.3718 4.70513 14.7308 5.11538C15.1154 5.52564 15.3077 6.0641 15.3077 6.73077C15.3077 7.21795 15.1795 7.64102 14.9231 8C14.6667 8.35897 14.2821 8.60256 13.7692 8.73077C13.3333 8.85898 12.6923 8.96154 11.8462 9.03846C11.0256 9.11539 10.1667 9.15385 9.26923 9.15385C9.98718 9.66667 10.6923 10.2436 11.3846 10.8846C12.0769 11.5 12.5513 12 12.8077 12.3846C13.1667 12.8974 13.3462 13.4359 13.3462 14C13.3462 14.5128 13.141 14.9744 12.7308 15.3846C12.3205 15.7949 11.8205 16 11.2308 16Z" fill="#FF4C62"/>
</svg>
