<svg width="18" height="14" viewBox="0 0 18 14" fill="none" xmlns="http://www.w3.org/2000/svg">
<path d="M0.718104 7.29006C0.648653 7.10296 0.648653 6.89715 0.718104 6.71006C1.39452 5.06993 2.5427 3.66759 4.01708 2.6808C5.49146 1.69402 7.22564 1.16724 8.99977 1.16724C10.7739 1.16724 12.5081 1.69402 13.9825 2.6808C15.4568 3.66759 16.605 5.06993 17.2814 6.71006C17.3509 6.89715 17.3509 7.10296 17.2814 7.29006C16.605 8.93018 15.4568 10.3325 13.9825 11.3193C12.5081 12.3061 10.7739 12.8329 8.99977 12.8329C7.22564 12.8329 5.49146 12.3061 4.01708 11.3193C2.5427 10.3325 1.39452 8.93018 0.718104 7.29006Z" stroke="#5E5E5E" stroke-linecap="round" stroke-linejoin="round"/>
<path d="M8.99977 9.50006C10.3805 9.50006 11.4998 8.38077 11.4998 7.00006C11.4998 5.61934 10.3805 4.50006 8.99977 4.50006C7.61906 4.50006 6.49977 5.61934 6.49977 7.00006C6.49977 8.38077 7.61906 9.50006 8.99977 9.50006Z" stroke="#5E5E5E" stroke-linecap="round" stroke-linejoin="round"/>
</svg>
